<svg width="94" height="37" viewBox="0 0 94 37" fill="none" xmlns="http://www.w3.org/2000/svg">
<path d="M0.083252 17.3613C11.3859 25.4986 26.2102 31.8024 46.7353 31.8024C67.148 31.8024 81.743 25.6129 93.0483 17.3613V21.0689C83.6795 28.4039 69.0856 36.9129 46.6232 36.9129C24.2699 36.9129 9.78711 28.404 0.083252 21.0689V17.3613Z" fill="#4C3286"/>
<path d="M7.21779 4.50614C7.21779 4.14276 7.01289 3.93237 6.64866 3.93237H5.53503V0.0351562H9.95808C11.2792 0.0351562 11.8483 0.605325 11.8483 1.93209V7.46914H18.1105V1.93209C18.1105 0.605325 18.6796 0.0351562 19.9989 0.0351562H24.4219V3.93237H23.3101C22.9488 3.93237 22.742 4.14266 22.742 4.50614V18.6243H18.1104V11.3443H11.8482V18.6243H7.2176V4.50614H7.21779Z" fill="#4C3286"/>
<path d="M35.8216 10.9554L34.892 7.85895C34.525 6.68934 34.1391 4.79354 34.1391 4.79354H34.0891C34.0891 4.79354 33.6994 6.68934 33.3359 7.85895L32.4064 10.9554H35.8216ZM25.4705 14.7245H25.964C26.3782 14.7245 26.5074 14.5936 26.6641 14.1533L31.7061 0.0351562H36.5218L41.5668 14.1533C41.7205 14.5935 41.8527 14.7245 42.2641 14.7245H42.7567V18.6233H39.7805C38.4849 18.6233 37.9684 18.2337 37.6079 17.1173L36.805 14.7246H31.4231L30.6202 17.1173C30.2586 18.2337 29.7406 18.6233 28.4476 18.6233H25.4705V14.7245Z" fill="#4C3286"/>
<path d="M51.8536 8.97788C53.3513 8.97788 54.0788 7.91181 54.0788 6.42941C54.0788 4.9488 53.3513 3.93237 51.9318 3.93237H50.1208V8.97788H51.8536ZM45.4894 3.93237H43.8041V0.0351562H52.7832C56.3812 0.0351562 58.8103 2.68603 58.8103 6.42941C58.8103 10.172 56.3812 12.8794 52.7832 12.8794H50.1207V18.6241H45.4893V3.93227L45.4894 3.93237Z" fill="#4C3286"/>
<path d="M67.9091 8.97788C69.4067 8.97788 70.1351 7.91181 70.1351 6.42941C70.1351 4.9488 69.4067 3.93237 67.9847 3.93237H66.1774V8.97788H67.9091ZM61.5431 3.93237H59.8632V0.0351562H68.8423C72.4396 0.0351562 74.8678 2.68603 74.8678 6.42941C74.8678 10.172 72.4396 12.8794 68.8423 12.8794H66.1773V18.6241H61.543V3.93227L61.5431 3.93237Z" fill="#4C3286"/>
<path d="M80.6957 10.487L76.7642 4.50614C76.4282 3.98551 76.4001 3.93237 75.8321 3.93237H75.0825V0.0351562H77.6192C78.7554 0.0351562 79.3738 0.217319 79.9955 1.28074L81.8883 4.4834C82.5848 5.6765 82.999 6.55947 82.999 6.55947H83.0519C83.0519 6.55947 83.4644 5.6765 84.1617 4.4834L86.0257 1.28074C86.6449 0.217319 87.2684 0.0351562 88.4055 0.0351562H90.9422V3.93237H90.192C89.6236 3.93237 89.5955 3.98551 89.2595 4.50614L85.329 10.487V18.6242H80.6955L80.6957 10.487Z" fill="#4C3286"/>
</svg>
